<svg width="17" height="16" viewBox="0 0 17 16" fill="none" xmlns="http://www.w3.org/2000/svg">
<path d="M8.10607 10.6667C7.9503 10.667 7.79934 10.6128 7.6794 10.5134L3.6794 7.18007C3.54326 7.06691 3.45764 6.90431 3.44139 6.72802C3.42514 6.55174 3.47958 6.37622 3.59274 6.24007C3.7059 6.10393 3.8685 6.01831 4.04479 6.00206C4.22107 5.9858 4.39659 6.04025 4.53274 6.1534L8.10607 9.14007L11.6794 6.26007C11.7476 6.20469 11.8261 6.16334 11.9103 6.13839C11.9945 6.11343 12.0828 6.10537 12.1702 6.11466C12.2575 6.12395 12.3422 6.15042 12.4193 6.19253C12.4964 6.23465 12.5644 6.29159 12.6194 6.36007C12.6805 6.42862 12.7267 6.50904 12.7552 6.59629C12.7838 6.68354 12.794 6.77574 12.7852 6.86711C12.7764 6.95849 12.7489 7.04707 12.7043 7.12731C12.6597 7.20754 12.599 7.27771 12.5261 7.33341L8.52607 10.5534C8.40268 10.6371 8.2548 10.677 8.10607 10.6667V10.6667Z" fill="white"/>
</svg>
