<?xml version="1.0" encoding="UTF-8"?><svg version="1.1" viewBox="5.47852 -61.9824 39.8965 30.9805" xmlns="http://www.w3.org/2000/svg" xmlns:xlink="http://www.w3.org/1999/xlink"><path d="M45.375-46.4922q0-.128906-.0429688-.214844 -.0429688-.0859375-.107422-.150391l-14.5879-14.7383q-.236328-.236328-.365234-.311523 -.128906-.0751953-.257812-.0751953 -.236328 0-.375977.161133 -.139648.161133-.139648.354492 0 .107422.0214844.204102 .0214844.0966797.0859375.182617l9.68945 9.68945 5.00586 4.91992 .150391-.472656 -5.19922-.0429688h-33.2793q-.193359 0-.34375.139648 -.150391.139648-.150391.354492 0 .214844.150391.354492 .150391.139648.34375.139648h33.2793l5.19922-.0429688 -.150391-.472656 -5.00586 4.91992 -9.68945 9.68945q-.0429688.0429688-.0751953.161133 -.0322266.118164-.0322266.225586 0 .193359.139648.354492 .139648.161133.375977.161133 .214844 0 .365234-.171875l14.8457-14.9531q.0644531-.0859375.107422-.171875 .0429688-.0859375.0429688-.193359Z" fill="#000"></path></svg>