<svg width="49" height="32" viewBox="0 0 49 32" fill="none" xmlns="http://www.w3.org/2000/svg">
<path d="M33.112 0.891768C33.0006 0.780361 32.8791 0.724656 32.7474 0.724656C32.6157 0.724656 32.4891 0.785425 32.3676 0.906959C32.2562 1.01837 32.2005 1.1399 32.2005 1.27156C32.2005 1.40322 32.2562 1.52476 32.3676 1.63616L42.0447 11.3133L46.5263 15.7645L41.9839 15.7189L0.714011 15.7189C0.572221 15.7189 0.450687 15.7695 0.349409 15.8708C0.288643 15.9316 0.240536 16.005 0.205088 16.0911C0.169641 16.1772 0.164577 16.2582 0.189897 16.3342C0.215217 16.4101 0.268388 16.4886 0.34941 16.5696C0.450689 16.6709 0.572223 16.7114 0.714012 16.6912L41.9839 16.7216L46.5871 16.676L40.5255 22.6463L32.3676 30.8043C32.2562 30.9157 32.1954 31.0372 32.1853 31.1689C32.1752 31.3006 32.2157 31.412 32.3068 31.5031C32.4081 31.6044 32.5271 31.6525 32.6638 31.6474C32.8006 31.6424 32.9246 31.5841 33.036 31.4727L47.9543 16.5848C48.0556 16.4835 48.1164 16.3519 48.1366 16.1898C48.1569 16.0278 48.1113 15.891 47.9999 15.7796L33.112 0.891768Z" fill="white"/>
</svg>
