<svg width="291" height="72" viewBox="0 0 291 72" fill="none" xmlns="http://www.w3.org/2000/svg">
<path d="M67.6883 8.36335C69.9255 8.36335 71.7391 6.54974 71.7391 4.31254C71.7391 2.07533 69.9255 0.261719 67.6883 0.261719C65.4511 0.261719 63.6375 2.07533 63.6375 4.31254C63.6375 6.54974 65.4511 8.36335 67.6883 8.36335Z" fill="#F2F2F2"/>
<path fill-rule="evenodd" clip-rule="evenodd" d="M55.5354 44.2325C55.5354 59.5682 43.1034 72.0002 27.7677 72.0002C12.432 72.0002 0 59.5682 0 44.2325C0 28.8969 12.432 16.4648 27.7677 16.4648C43.1034 16.4648 55.5354 28.8969 55.5354 44.2325ZM21.0379 46.9766L29.1134 33.5828V41.6191H34.497L26.4215 55.0129V46.9766H21.0379Z" fill="#F2F2F2"/>
<path d="M65.466 29.532C69.0743 29.532 71.9995 26.6068 71.9995 22.9984C71.9995 19.39 69.0743 16.4648 65.466 16.4648C61.8576 16.4648 58.9324 19.39 58.9324 22.9984C58.9324 26.6068 61.8576 29.532 65.466 29.532Z" fill="#F2F2F2"/>
<path d="M49.0021 13.0672C52.6105 13.0672 55.5357 10.142 55.5357 6.53358C55.5357 2.92518 52.6105 0 49.0021 0C45.3937 0 42.4685 2.92518 42.4685 6.53358C42.4685 10.142 45.3937 13.0672 49.0021 13.0672Z" fill="#F2F2F2"/>
<path d="M88.8421 53.861C88.8421 44.8867 75.5908 46.9871 75.5908 42.3281C75.5908 40.6478 76.7746 39.8459 78.3403 39.8841C80.097 39.9223 81.319 40.9533 81.4336 42.6718H88.4984C88.2311 37.5546 84.2977 34.6523 78.4549 34.6523C72.8412 34.6523 68.6787 37.4782 68.6787 42.5573C68.6023 52.0661 82.0064 49.393 82.0064 54.3574C82.0064 55.9232 80.7844 56.8779 78.8749 56.8779C77.0419 56.8779 75.7435 55.885 75.5526 53.8228H68.6023C68.7932 59.2455 73.2995 62.1097 79.0659 62.1097C85.3288 62.1097 88.8421 58.3672 88.8421 53.861Z" fill="#F2F2F2"/>
<path d="M113.903 40.5333H107.372V52.1043C107.372 55.0066 105.768 56.6105 103.248 56.6105C100.804 56.6105 99.1619 55.0066 99.1619 52.1043V40.5333H92.6699V52.9827C92.6699 58.6727 95.9923 62.0715 100.919 62.0715C103.783 62.0715 106.074 60.7731 107.372 58.94V61.8423H113.903V40.5333Z" fill="#F2F2F2"/>
<path d="M125.123 43.5502V40.5333H118.593V72.0004H125.123V58.8637C126.307 60.6585 128.56 62.1479 131.692 62.1479C136.924 62.1479 141.086 57.8708 141.086 51.1496C141.086 44.4285 136.924 40.2278 131.692 40.2278C128.56 40.2278 126.307 41.6789 125.123 43.5502ZM134.441 51.1496C134.441 54.5484 132.226 56.4578 129.744 56.4578C127.3 56.4578 125.085 54.5866 125.085 51.1878C125.085 47.7891 127.3 45.9178 129.744 45.9178C132.226 45.9178 134.441 47.7509 134.441 51.1496Z" fill="#F2F2F2"/>
<path d="M153.906 45.4596C156.083 45.4596 157.916 46.7962 157.916 49.1256H149.744C150.126 46.758 151.768 45.4596 153.906 45.4596ZM164.103 54.7775H157.152C156.618 55.9232 155.587 56.8397 153.754 56.8397C151.653 56.8397 149.935 55.5413 149.706 52.7535H164.484C164.561 52.1043 164.599 51.4551 164.599 50.8441C164.599 44.3521 160.207 40.2278 153.983 40.2278C147.643 40.2278 143.214 44.4285 143.214 51.1878C143.214 57.9471 147.72 62.1479 153.983 62.1479C159.291 62.1479 163.071 58.94 164.103 54.7775Z" fill="#F2F2F2"/>
<path d="M174.574 51.9516C174.574 48.2855 176.369 47.2162 179.462 47.2162H181.257V40.3041C178.393 40.3041 176.064 41.8317 174.574 44.0848V40.5333H168.044V61.8423H174.574V51.9516Z" fill="#F2F2F2"/>
<path d="M200.074 54.3574C200.074 57.2598 198.012 58.9782 194.575 58.9782H188.426V49.5839H194.46C197.859 49.5839 200.074 51.4169 200.074 54.3574ZM199.386 42.4045C199.386 45.1159 197.515 46.7198 194.269 46.7198H188.426V38.0892H194.193C197.592 38.0892 199.386 39.7695 199.386 42.4045ZM203.549 54.7011C203.549 51.4169 201.181 48.6292 198.279 48.1327C200.838 47.2926 202.938 45.345 202.938 41.9844C202.938 38.2802 200.112 35.2251 194.498 35.2251H184.951V61.8423H194.88C200.379 61.8423 203.549 58.7109 203.549 54.7011Z" fill="#F2F2F2"/>
<path d="M228.229 51.3406C228.229 44.734 223.609 40.5715 217.651 40.5715C211.732 40.5715 207.073 44.734 207.073 51.3406C207.073 57.9853 211.579 62.186 217.498 62.186C223.456 62.186 228.229 57.9853 228.229 51.3406ZM210.625 51.3406C210.625 46.0706 213.947 43.5883 217.613 43.5883C221.203 43.5883 224.678 46.0706 224.678 51.3406C224.678 56.6487 221.126 59.131 217.498 59.131C213.871 59.131 210.625 56.6487 210.625 51.3406Z" fill="#F2F2F2"/>
<path d="M232.799 61.8423H236.274V33.583H232.799V61.8423Z" fill="#F2F2F2"/>
<path d="M242.96 56.1141C242.96 60.3148 245.061 61.8423 248.765 61.8423H251.896V58.9018H249.338C247.199 58.9018 246.435 58.1763 246.435 56.1141V43.7793H251.896V40.9152H246.435V35.6452H242.96V40.9152H240.249V43.7793H242.96V56.1141Z" fill="#F2F2F2"/>
<path d="M265.005 43.512C268.594 43.512 271.649 45.7651 271.611 49.8512H258.398C258.78 45.7651 261.606 43.512 265.005 43.512ZM274.781 55.3885H271.038C270.275 57.6416 268.289 59.2455 265.157 59.2455C261.606 59.2455 258.627 56.9161 258.36 52.6772H275.086C275.163 51.9516 275.201 51.3406 275.201 50.5768C275.201 44.8486 271.229 40.5715 265.157 40.5715C259.047 40.5715 254.808 44.734 254.808 51.3406C254.808 57.9853 259.2 62.186 265.157 62.186C270.351 62.186 273.712 59.2074 274.781 55.3885Z" fill="#F2F2F2"/>
<path d="M283.263 50.4622C283.263 45.6123 285.784 44.123 289.106 44.123H290.023V40.5333C286.7 40.5333 284.447 41.9844 283.263 44.3139V40.9152H279.788V61.8423H283.263V50.4622Z" fill="#F2F2F2"/>
<path d="M214.814 27.9998V16.7998H219.038C220.201 16.7998 221.081 17.0718 221.678 17.6158C222.276 18.1598 222.574 18.8425 222.574 19.6638C222.574 20.3785 222.382 20.9491 221.998 21.3758C221.614 21.7918 221.15 22.0745 220.606 22.2238C221.033 22.3091 221.412 22.4798 221.742 22.7358C222.084 22.9918 222.35 23.3118 222.542 23.6958C222.734 24.0798 222.83 24.4958 222.83 24.9438C222.83 25.5198 222.686 26.0425 222.398 26.5118C222.121 26.9705 221.71 27.3331 221.166 27.5998C220.622 27.8665 219.956 27.9998 219.166 27.9998H214.814ZM216.51 21.5998H218.83C219.481 21.5998 219.977 21.4505 220.318 21.1518C220.66 20.8425 220.83 20.4211 220.83 19.8878C220.83 19.3651 220.66 18.9491 220.318 18.6398C219.988 18.3305 219.481 18.1758 218.798 18.1758H216.51V21.5998ZM216.51 26.6078H218.942C219.625 26.6078 220.153 26.4478 220.526 26.1278C220.91 25.8078 221.102 25.3598 221.102 24.7838C221.102 24.2078 220.905 23.7545 220.51 23.4238C220.116 23.0825 219.582 22.9118 218.91 22.9118H216.51V26.6078Z" fill="white"/>
<path d="M237.489 27.9998V16.7998H244.609V18.1758H239.185V21.6638H244.129V23.0078H239.185V26.6238H244.609V27.9998H237.489Z" fill="white"/>
<path d="M262.054 27.9998V18.1758H258.742V16.7998H267.046V18.1758H263.75V27.9998H262.054Z" fill="white"/>
<path d="M279.494 27.9998L283.622 16.7998H285.478L289.574 27.9998H287.782L286.822 25.2638H282.246L281.286 27.9998H279.494ZM282.726 23.9198H286.342L284.534 18.8158L282.726 23.9198Z" fill="white"/>
</svg>
